<svg xmlns="http://www.w3.org/2000/svg" viewBox="0 0 224.82 50.34"><g id="Layer_2" data-name="Layer 2"><g id="Layer_1-2" data-name="Layer 1"><path d="M11.74,36.45V38.1H10.08v7a11,11,0,0,1-.14,2.11,3.54,3.54,0,0,1-.69,1.41,4.11,4.11,0,0,1-1.65,1.2,5.89,5.89,0,0,1-2.45.49,5.73,5.73,0,0,1-3.64-1.26l1.18-1.34a4.14,4.14,0,0,0,2.61.95,3.31,3.31,0,0,0,1.45-.31A2.4,2.4,0,0,0,8.18,46.8a6.7,6.7,0,0,0,.09-1.33v-.86a4.12,4.12,0,0,1-1.34,1.06,4.15,4.15,0,0,1-2,.49,4.1,4.1,0,0,1-3.23-1.4A5,5,0,0,1,.44,41.31a4.91,4.91,0,0,1,1.38-3.63,4.34,4.34,0,0,1,6.45.11V36.45ZM2.37,41.27a3.4,3.4,0,0,0,.81,2.34,2.71,2.71,0,0,0,2.09.91A2.88,2.88,0,0,0,7.4,43.6a3.18,3.18,0,0,0,.9-2.34,3.13,3.13,0,0,0-.9-2.34,2.9,2.9,0,0,0-4.15,0A3.16,3.16,0,0,0,2.37,41.27Z"/><path d="M14.25,44.24V38.1H12.39V36.45H15.7v2.12a3.84,3.84,0,0,1,.85-1.37,2.67,2.67,0,0,1,1.15-.72,6.11,6.11,0,0,1,1.66-.18h.47v1.88h-.36a5.63,5.63,0,0,0-2.06.28,1.87,1.87,0,0,0-1,1,7.67,7.67,0,0,0-.32,2.67v2.08h2v1.65H12.39V44.24Z"/><path d="M29.75,44.24v1.65H26.58V44.74a4.1,4.1,0,0,1-2.94,1.31,3.16,3.16,0,0,1-2.19-.84,2.92,2.92,0,0,1,.06-4.33A3.48,3.48,0,0,1,23.89,40a4.54,4.54,0,0,1,2.51.8v-.94a3.53,3.53,0,0,0-.14-1.11,1.35,1.35,0,0,0-.62-.7,2.36,2.36,0,0,0-1.28-.31,2.1,2.1,0,0,0-2,1.11l-1.74-.47a4.13,4.13,0,0,1,4-2.21,5.07,5.07,0,0,1,1.8.29,2.62,2.62,0,0,1,1.13.74,2.41,2.41,0,0,1,.5,1,7.63,7.63,0,0,1,.13,1.68v4.37ZM26.4,42.38A3.83,3.83,0,0,0,24,41.44a1.84,1.84,0,0,0-1.26.45,1.51,1.51,0,0,0-.5,1.16,1.52,1.52,0,0,0,.44,1.11,1.63,1.63,0,0,0,1.21.45,3.52,3.52,0,0,0,2.49-1.13Z"/><path d="M31.82,48.48V38.1H30.26V36.45h3.37v1.48a4.12,4.12,0,0,1,3.28-1.63,4.22,4.22,0,0,1,3.22,1.37,5,5,0,0,1,1.27,3.55A4.79,4.79,0,0,1,40,44.84a4.39,4.39,0,0,1-6.39-.12v3.76h1.79v1.65H30.13V48.48Zm1.78-7.17a3.66,3.66,0,0,0,.32,1.49,2.78,2.78,0,0,0,1,1.19,2.65,2.65,0,0,0,1.61.49,2.84,2.84,0,0,0,2.14-.89,3.42,3.42,0,0,0,.85-2.44,3.12,3.12,0,0,0-.89-2.36,2.81,2.81,0,0,0-2-.85,2.9,2.9,0,0,0-2.11.92A3.33,3.33,0,0,0,33.6,41.31Z"/><path d="M44.28,44.24V34H42.61V32.32h3.48v5.21a5,5,0,0,1,3.1-1.35,2.8,2.8,0,0,1,1.51.39,2,2,0,0,1,.8,1,6,6,0,0,1,.22,1.87v4.77h1.57v1.65H49.9V40.12a10.85,10.85,0,0,0-.06-1.44,1,1,0,0,0-.37-.59,1.11,1.11,0,0,0-.71-.24,4.93,4.93,0,0,0-2.67,1.22v5.17h1.6v1.65H42.61V44.24Z"/><path d="M55.48,44.24V38.1H54V36.45h3.25v7.79h1.43v1.65H54V44.24Zm-.26-11a1.09,1.09,0,0,1,.31-.78,1.1,1.1,0,0,1,1.56,0,1.14,1.14,0,0,1,0,1.58,1.06,1.06,0,0,1-.77.33,1,1,0,0,1-.78-.33A1.08,1.08,0,0,1,55.22,33.24Z"/><path d="M68.56,36.45V40H66.93a2.23,2.23,0,0,0-.81-1.57,2.65,2.65,0,0,0-3.59.33,3.44,3.44,0,0,0-.77,2.32,3.94,3.94,0,0,0,.73,2.36,2.41,2.41,0,0,0,2.1,1,2.87,2.87,0,0,0,2.76-1.86l1.5.73a4.39,4.39,0,0,1-4.34,2.81,4.23,4.23,0,0,1-3.45-1.53A5.4,5.4,0,0,1,59.8,41.1a4.85,4.85,0,0,1,1.37-3.53,4.36,4.36,0,0,1,3.17-1.39,3.78,3.78,0,0,1,2.59.93v-.66Z"/><path d="M86.34,44.24v1.65H82.87V44.51a4.28,4.28,0,0,1-3.31,1.54,4.51,4.51,0,0,1-3.16-1.26A4.63,4.63,0,0,1,75,41.21a4.84,4.84,0,0,1,1.41-3.68,4.44,4.44,0,0,1,3.16-1.35,4.3,4.3,0,0,1,3.27,1.53V34H81.09V32.32h3.59V44.24ZM77,41.16a3.22,3.22,0,0,0,.86,2.4,2.91,2.91,0,0,0,4.13,0,3.25,3.25,0,0,0,.91-2.45A3,3,0,0,0,82,38.7a3.11,3.11,0,0,0-2.07-.8,2.69,2.69,0,0,0-2.07.94A3.36,3.36,0,0,0,77,41.16Z"/><path d="M96.86,41.64H89.1a3.4,3.4,0,0,0,1,2.11,3,3,0,0,0,2.14.81,3.5,3.5,0,0,0,3-1.56l1.6.73a4.89,4.89,0,0,1-2,1.83,6,6,0,0,1-2.61.6,5.25,5.25,0,0,1-3.63-1.35,4.65,4.65,0,0,1-1.5-3.64,4.74,4.74,0,0,1,1.47-3.58,4.69,4.69,0,0,1,3.36-1.41,4.88,4.88,0,0,1,3.37,1.38A5.38,5.38,0,0,1,96.86,41.64ZM95,40.29a3.42,3.42,0,0,0-1-1.8,2.79,2.79,0,0,0-2-.8,2.61,2.61,0,0,0-1.86.72,3.15,3.15,0,0,0-1,1.88Z"/><path d="M98.39,45.89V42.65H100V43a1.56,1.56,0,0,0,.7,1.1,2.54,2.54,0,0,0,1.46.43,2.71,2.71,0,0,0,1.4-.32.94.94,0,0,0,.52-.86.84.84,0,0,0-.43-.79,5.64,5.64,0,0,0-1.72-.47A5.51,5.51,0,0,1,99.21,41a2.45,2.45,0,0,1-.81-1.91,2.54,2.54,0,0,1,.88-2,3.41,3.41,0,0,1,2.34-.8,4.46,4.46,0,0,1,2.25.55v-.4h1.62v3.13h-1.62V39a2.38,2.38,0,0,0-2.13-1.16,2.05,2.05,0,0,0-1.18.32,1,1,0,0,0-.46.84.74.74,0,0,0,.42.74,8,8,0,0,0,1.83.42,9.36,9.36,0,0,1,2,.51,2.55,2.55,0,0,1,1.14.95,2.75,2.75,0,0,1,.45,1.56,2.52,2.52,0,0,1-1,2.09,4.57,4.57,0,0,1-5,.09v.53Z"/><path d="M108.61,44.24V38.1h-1.44V36.45h3.25v7.79h1.43v1.65h-4.68V44.24Zm-.26-11a1.09,1.09,0,0,1,.31-.78,1,1,0,0,1,.78-.33,1.06,1.06,0,0,1,.78.32,1.14,1.14,0,0,1,0,1.58,1.07,1.07,0,0,1-.78.33,1,1,0,0,1-.77-.33A1.08,1.08,0,0,1,108.35,33.24Z"/><path d="M124.23,36.45V38.1h-1.66v7a11.86,11.86,0,0,1-.14,2.11,3.68,3.68,0,0,1-.69,1.41,4.11,4.11,0,0,1-1.65,1.2,5.89,5.89,0,0,1-2.45.49A5.71,5.71,0,0,1,114,49.08l1.18-1.34a4.14,4.14,0,0,0,2.61.95,3.34,3.34,0,0,0,1.45-.31,2.49,2.49,0,0,0,1-.74,2.28,2.28,0,0,0,.42-.84,5.84,5.84,0,0,0,.1-1.33v-.86a4.29,4.29,0,0,1-1.35,1.06,4.39,4.39,0,0,1-5.23-.91,5,5,0,0,1-1.25-3.45,4.91,4.91,0,0,1,1.38-3.63,4.36,4.36,0,0,1,3.19-1.38,4.41,4.41,0,0,1,3.26,1.49V36.45Zm-9.38,4.82a3.41,3.41,0,0,0,.82,2.34,2.69,2.69,0,0,0,2.08.91,2.9,2.9,0,0,0,2.14-.92,3.18,3.18,0,0,0,.9-2.34,3.13,3.13,0,0,0-.9-2.34,2.9,2.9,0,0,0-4.15,0A3.17,3.17,0,0,0,114.85,41.27Z"/><path d="M128.41,36.45v1.14a5.54,5.54,0,0,1,3.19-1.29,2.43,2.43,0,0,1,1.48.44,2,2,0,0,1,.77,1.06,7.1,7.1,0,0,1,.18,1.84v4.6h1.55v1.65h-3.36V39.72a2.11,2.11,0,0,0-.32-1.4,1,1,0,0,0-.77-.33,4.6,4.6,0,0,0-2.72,1.2v5.05H130v1.65h-5V44.24h1.62V38.1H125V36.45Z"/><path d="M141.34,45.89V42.65H143V43a1.56,1.56,0,0,0,.7,1.1,2.54,2.54,0,0,0,1.46.43,2.71,2.71,0,0,0,1.4-.32.94.94,0,0,0,.52-.86.84.84,0,0,0-.43-.79,5.74,5.74,0,0,0-1.72-.47A5.51,5.51,0,0,1,142.16,41a2.45,2.45,0,0,1-.81-1.91,2.54,2.54,0,0,1,.88-2,3.39,3.39,0,0,1,2.34-.8,4.46,4.46,0,0,1,2.25.55v-.4h1.62v3.13h-1.62V39a2.38,2.38,0,0,0-2.13-1.16,2.05,2.05,0,0,0-1.18.32,1,1,0,0,0-.46.84.74.74,0,0,0,.42.74,8,8,0,0,0,1.83.42,9.36,9.36,0,0,1,2,.51,2.55,2.55,0,0,1,1.14.95,2.75,2.75,0,0,1,.45,1.56,2.52,2.52,0,0,1-1,2.09,4.57,4.57,0,0,1-5,.09v.53Z"/><path d="M151.31,48.48V38.1h-1.56V36.45h3.37v1.48a4.12,4.12,0,0,1,3.28-1.63,4.22,4.22,0,0,1,3.22,1.37,5,5,0,0,1,1.27,3.55,4.79,4.79,0,0,1-1.38,3.62,4.39,4.39,0,0,1-6.39-.12v3.76h1.79v1.65h-5.29V48.48Zm1.78-7.17a3.66,3.66,0,0,0,.32,1.49,2.85,2.85,0,0,0,1,1.19,2.67,2.67,0,0,0,1.61.49,2.84,2.84,0,0,0,2.14-.89,3.42,3.42,0,0,0,.85-2.44,3.12,3.12,0,0,0-.89-2.36,2.77,2.77,0,0,0-2-.85,2.9,2.9,0,0,0-2.12.92A3.33,3.33,0,0,0,153.09,41.31Z"/><path d="M172.17,41.64h-7.76a3.4,3.4,0,0,0,1,2.11,3,3,0,0,0,2.14.81,3.5,3.5,0,0,0,3-1.56l1.6.73a4.89,4.89,0,0,1-2,1.83,6,6,0,0,1-2.61.6,5.25,5.25,0,0,1-3.63-1.35,4.65,4.65,0,0,1-1.5-3.64,4.74,4.74,0,0,1,1.47-3.58,4.69,4.69,0,0,1,3.36-1.41,4.88,4.88,0,0,1,3.37,1.38A5.38,5.38,0,0,1,172.17,41.64Zm-1.87-1.35a3.42,3.42,0,0,0-1-1.8,2.79,2.79,0,0,0-2-.8,2.61,2.61,0,0,0-1.86.72,3.15,3.15,0,0,0-.95,1.88Z"/><path d="M182.34,36.45V40h-1.62a2.24,2.24,0,0,0-.82-1.57,2.47,2.47,0,0,0-1.6-.55,2.53,2.53,0,0,0-2,.88,3.43,3.43,0,0,0-.76,2.32,4,4,0,0,0,.72,2.36,2.43,2.43,0,0,0,2.1,1,2.88,2.88,0,0,0,2.77-1.86l1.5.73a4.4,4.4,0,0,1-4.34,2.81,4.24,4.24,0,0,1-3.46-1.53,5.4,5.4,0,0,1-1.26-3.53A4.82,4.82,0,0,1,175,37.57a4.34,4.34,0,0,1,3.16-1.39,3.8,3.8,0,0,1,2.6.93v-.66Z"/><path d="M185.15,44.24V38.1h-1.44V36.45H187v7.79h1.43v1.65h-4.68V44.24Zm-.26-11a1.09,1.09,0,0,1,.31-.78,1.1,1.1,0,0,1,1.56,0,1.14,1.14,0,0,1,0,1.58,1.06,1.06,0,0,1-.77.33,1,1,0,0,1-.78-.33A1.08,1.08,0,0,1,184.89,33.24Z"/><path d="M198.9,44.24v1.65h-3.16V44.74a4.1,4.1,0,0,1-2.94,1.31,3.16,3.16,0,0,1-2.19-.84,2.93,2.93,0,0,1,0-4.33,3.5,3.5,0,0,1,2.39-.87,4.49,4.49,0,0,1,2.5.8v-.94a3.57,3.57,0,0,0-.13-1.11,1.45,1.45,0,0,0-.62-.7,2.37,2.37,0,0,0-1.29-.31,2.07,2.07,0,0,0-2,1.11l-1.74-.47a4.13,4.13,0,0,1,4-2.21,5.15,5.15,0,0,1,1.8.29,2.68,2.68,0,0,1,1.13.74,2.54,2.54,0,0,1,.5,1,8.32,8.32,0,0,1,.13,1.68v4.37Zm-3.35-1.86a3.81,3.81,0,0,0-2.37-.94,1.84,1.84,0,0,0-1.26.45,1.58,1.58,0,0,0-.06,2.27,1.61,1.61,0,0,0,1.2.45,3.52,3.52,0,0,0,2.49-1.13Z"/><path d="M201.18,44.24V34h-1.64V32.32H203V44.24h1.41v1.65h-4.87V44.24Z"/><path d="M206.93,44.24V38.1h-1.44V36.45h3.25v7.79h1.43v1.65h-4.68V44.24Zm-.26-11a1.09,1.09,0,0,1,.31-.78,1.1,1.1,0,0,1,1.56,0,1.14,1.14,0,0,1,0,1.58,1.06,1.06,0,0,1-.77.33A1,1,0,0,1,207,34,1.08,1.08,0,0,1,206.67,33.24Z"/><path d="M211.36,45.89V42.65H213V43a1.54,1.54,0,0,0,.71,1.1,2.51,2.51,0,0,0,1.45.43,2.69,2.69,0,0,0,1.4-.32,1,1,0,0,0,.53-.86.85.85,0,0,0-.44-.79,5.64,5.64,0,0,0-1.72-.47A5.47,5.47,0,0,1,212.19,41a2.42,2.42,0,0,1-.82-1.91,2.55,2.55,0,0,1,.89-2,3.37,3.37,0,0,1,2.34-.8,4.46,4.46,0,0,1,2.25.55v-.4h1.61v3.13h-1.61V39a2.38,2.38,0,0,0-2.14-1.16,2.05,2.05,0,0,0-1.18.32,1,1,0,0,0-.46.84.74.74,0,0,0,.42.74,8.29,8.29,0,0,0,1.83.42,9.05,9.05,0,0,1,2,.51,2.55,2.55,0,0,1,1.14.95,2.68,2.68,0,0,1,.46,1.56,2.52,2.52,0,0,1-1,2.09,4.59,4.59,0,0,1-5,.09v.53Z"/><path d="M220.1,38.1V36.45h1.2V35l1.82-1.69v3.15h1.7V38.1h-1.7v4.58a4.36,4.36,0,0,0,.12,1.36c.07.18.27.26.59.26a2.6,2.6,0,0,0,1-.19v1.68a4,4,0,0,1-1.39.26,2.22,2.22,0,0,1-1.34-.38,1.57,1.57,0,0,1-.65-.94,9.53,9.53,0,0,1-.14-1.95V38.1Z"/><path d="M5.3,13.35V8.14H7.94V4.86H5.3V0H2V4.86H0V8.14H2v5.33c0,4.13,1.45,6.31,5,6.31.52,0,1.39-.06,1.88-.12V16.39c-.23,0-.81.06-1.1.06C5.88,16.45,5.3,15.68,5.3,13.35Z"/><path d="M18.25,4.42c-4.61,0-7.65,3.1-7.65,8s3.1,7.81,7.74,7.81,7.68-3.06,7.68-8A7.37,7.37,0,0,0,18.25,4.42ZM18.31,17c-2.67,0-4.38-1.92-4.38-4.81s1.71-4.51,4.32-4.51,4.44,1.92,4.44,4.81A4.16,4.16,0,0,1,18.31,17Z"/><path d="M108,10.35a5.55,5.55,0,0,0-4.79-5.47l-.11,0c-.27,0-.54-.07-.82-.09h-.34a5.83,5.83,0,0,0-4.4,2,10.44,10.44,0,0,0-1,1.22,5.32,5.32,0,0,0-2.18-2.42A5,5,0,0,0,93.28,5a5.63,5.63,0,0,0-1.75-.28,5.12,5.12,0,0,0-.56,0h0a5.64,5.64,0,0,0-4,2.15V5H81.7v3.3h2v8.15H61.51v3.29H89v-3c-.35,0-1.86-.24-1.86-.24V11.81a4.65,4.65,0,0,1,.59-2.42l0-.06a3.68,3.68,0,0,1,1.36-1.17l0,0a3.81,3.81,0,0,1,1.62-.36A3.76,3.76,0,0,1,92.22,8a3.36,3.36,0,0,1,.6.3,3.72,3.72,0,0,1,1.07,1,2.6,2.6,0,0,1,.36.75,3.4,3.4,0,0,1,.11.84v3.67h0v1.93s-1.71.18-2,.2v3h7.2v-3l-1.86-.2V11.81a4.65,4.65,0,0,1,.59-2.42l0-.06a3,3,0,0,1,1.36-1.17l0,0a3.81,3.81,0,0,1,1.62-.36A3.7,3.7,0,0,1,104.07,9a2.3,2.3,0,0,1,.6,1.59v6c-.34,0-1.71.18-2,.2v3H110V16.73l-2-.19Z"/><path d="M54.79,10.35A5.55,5.55,0,0,0,50,4.88l-.1,0c-.27,0-.54-.07-.82-.09h-.34a5.83,5.83,0,0,0-4.4,2,9.5,9.5,0,0,0-1,1.22,5.38,5.38,0,0,0-2.18-2.42A5.26,5.26,0,0,0,40.09,5a5.63,5.63,0,0,0-1.75-.28,5.12,5.12,0,0,0-.56,0h0a5.64,5.64,0,0,0-4,2.15V5H28.51v3.3h2v8.2h-2v3.24h7.33v-3c-.34,0-1.85-.24-1.85-.24V11.81a4.75,4.75,0,0,1,.58-2.42.21.21,0,0,0,0-.06A3.09,3.09,0,0,1,36,8.16l.05,0a3.79,3.79,0,0,1,1.61-.36A3.68,3.68,0,0,1,39,8a3.45,3.45,0,0,1,.61.3,3.72,3.72,0,0,1,1.07,1,2.57,2.57,0,0,1,.35.75,3,3,0,0,1,.12.84v3.67h0v1.93s-1.71.18-2,.2v3h7.19v-3l-1.85-.2V11.81a4.75,4.75,0,0,1,.58-2.42l.05-.06a3,3,0,0,1,1.36-1.17l0,0a3.79,3.79,0,0,1,1.61-.36,3.73,3.73,0,0,1,2.72,1.16,2.35,2.35,0,0,1,.61,1.6v6c-.35,0-1.71.18-2,.2v3h7.34V16.73l-2-.19Z"/><path d="M92.21,8l.61.3A3.14,3.14,0,0,0,92.21,8Z"/><path d="M102.26,4.77c.28,0,.55.05.82.09A5.41,5.41,0,0,0,102.26,4.77Z"/><path d="M123.7,6.9a6.65,6.65,0,0,0-5.07-2.21c-3.62,0-6.78,2.56-6.78,7.78,0,4.89,3.42,7.75,7.1,7.75A6,6,0,0,0,123.73,18l.17,1.77H129V16.54h-2V8.34h2V5H123.9Zm-4.11,10.26a4.15,4.15,0,0,1-4.38-4.48c0-2.92,1.71-4.84,4.4-4.84,2.85,0,4.12,2,4.12,4.6S122.37,17.16,119.59,17.16Z"/><path d="M138,8.08c0-.59-.2-2.45-.23-3h-4.87v3.3h2v8.2h-2v3.24h7.34V16.54h-2V12.26c0-2.71,3.91-4.18,6.29-4.18V4.69A9,9,0,0,0,138,8.08Z"/><path d="M158.41,11.14l3.68-2.83h2V5h-8V7.87h2.49l-6.52,5V.18h-5.3v3.3h2V16.54h-2v3.24h7.1V16.71l-1.8-.17.52-.95L156,12.85c2.64,5.22,4.58,7.17,7,7.17a9.65,9.65,0,0,0,1.91-.24V16.54a5.32,5.32,0,0,1-1.16.14C162.2,16.68,160.2,15.15,158.41,11.14Z"/><path d="M172,14.69a2.86,2.86,0,1,0,2.81,2.85A2.82,2.82,0,0,0,172,14.69Z"/></g></g></svg>