<svg version="1.0" xmlns="http://www.w3.org/2000/svg" width="933.333" height="933.333" viewBox="0 0 700 700"><path d="M66.7 244.7c-.4.3-.7 11.8-.7 25.5V295H45v34h20.7l.6 34.2c.7 43.6 2.4 54 11.2 67.2 6.1 9.3 14.4 14.8 26.5 17.7 5.4 1.2 32.1 1.6 34.1.4.5-.4.9-8 .9-17.3v-16.7h-10.8c-15.9 0-20.9-3.1-25.1-15-1.1-3-1.5-12.2-1.8-37.3l-.5-33.2H129v-33.9l-13.7-.3-13.8-.3-.3-25.3-.2-25.2H84.1c-9.2 0-17.1.3-17.4.7zm294.8 49.8c-13.3 2.4-23.1 7.3-32.6 16.2l-4.9 4.6V296h-56v35h21v84H155l.2 17.2.3 17.3h190l.3-15.7.3-15.7-4.8-.6c-2.7-.3-7-.9-9.8-1.3l-5-.7-.3-27.3c-.2-21.5.1-28.6 1.3-33.7 2.4-10.5 5.8-15.9 13.9-21.9 6.9-5.2 13.1-7 23.7-7 8.8-.1 10 .2 16.4 3.3 8.1 4 14.8 10.4 17.8 16.9 2.1 4.5 2.2 6.3 2.5 37.4l.3 32.6-6.8.7c-3.7.3-8.5.8-10.6 1.1l-3.7.6.2 15.6.3 15.7h75l.3-15.7.3-15.7-4.3-.5c-2.4-.3-6.9-.8-10-1.1l-5.8-.6v-26.2c0-28.7.8-36.6 4.5-44.2 4-8.2 8-12.2 16.3-16.2 7.3-3.5 8.2-3.7 17.7-3.8 9.2 0 10.5.3 16.8 3.2 7.7 3.7 14.9 10.5 16.9 16.1 1 2.8 1.3 12.2 1.3 37.2v33.5l-6.5.8c-3.6.4-8.4 1-10.8 1.3l-4.3.5.3 15.7.3 15.7h77l.3-15.6c.3-17.6.6-16.9-7.9-16.9-2 0-5.7-.3-8.2-.6l-4.5-.6-.4-37.7c-.5-40.6-.4-40.4-6.4-52.6-1.8-3.8-5.5-8.6-9.9-13-10.3-10.3-21.7-15.8-38.9-18.5-13.1-2.2-30.3 1.4-41.9 8.7-4.9 3.1-19.3 16.8-21.5 20.5-1.7 2.9-3.2 3.7-3.2 1.7 0-2.3-9.3-14.1-14.3-18.1-7-5.5-18.2-10.6-27.4-12.4-8.8-1.7-11.5-1.7-20.8.1zM616 397.9c-7.7 2.5-13.1 7.2-17.5 15.2-2.4 4.5-2.9 6.5-2.9 12.9-.1 6.3.4 8.4 2.7 13.2 3.4 6.9 9.1 12.1 16.4 14.8 18.4 6.9 38.3-5.9 40-25.7.9-10.8-5.3-22.1-15.5-28-3.7-2.2-6-2.7-12.6-3-4.5-.1-9.2.1-10.6.6z"/></svg>