<?xml version="1.0" standalone="no"?>
<!DOCTYPE svg PUBLIC "-//W3C//DTD SVG 20010904//EN"
 "http://www.w3.org/TR/2001/REC-SVG-20010904/DTD/svg10.dtd">
<svg version="1.0" xmlns="http://www.w3.org/2000/svg"
 width="700.000000pt" height="700.000000pt" viewBox="0 0 700.000000 700.000000"
 preserveAspectRatio="xMidYMid meet">
<metadata>
Created by potrace 1.11, written by Peter Selinger 2001-2013
</metadata>
<g transform="translate(0.000000,700.000000) scale(0.100000,-0.100000)"
fill="#000000" stroke="none">
<path d="M667 4553 c-4 -3 -7 -118 -7 -255 l0 -248 -105 0 -105 0 0 -170 0
-170 104 0 103 0 6 -342 c7 -436 24 -540 112 -672 61 -93 144 -148 265 -177
54 -12 321 -16 341 -4 5 4 9 80 9 173 l0 167 -108 0 c-159 0 -209 31 -251 150
-11 30 -15 122 -18 373 l-5 332 141 0 141 0 0 170 0 169 -137 3 -138 3 -3 253
-2 252 -169 0 c-92 0 -171 -3 -174 -7z"/>
<path d="M3615 4055 c-133 -24 -231 -73 -326 -162 l-49 -46 0 97 0 96 -280 0
-280 0 0 -175 0 -175 105 0 105 0 0 -420 0 -420 -670 0 -670 0 2 -172 3 -173
950 0 950 0 3 157 3 157 -48 6 c-27 3 -70 9 -98 13 l-50 7 -3 273 c-2 215 1
286 13 337 24 105 58 159 139 219 69 52 131 70 237 70 88 1 100 -2 164 -33 81
-40 148 -104 178 -169 21 -45 22 -63 25 -374 l3 -326 -68 -7 c-37 -3 -85 -8
-106 -11 l-37 -6 2 -156 3 -157 375 0 375 0 3 157 3 157 -43 5 c-24 3 -69 8
-100 11 l-58 6 0 262 c0 287 8 366 45 442 40 82 80 122 163 162 73 35 82 37
177 38 92 0 105 -3 168 -32 77 -37 149 -105 169 -161 10 -28 13 -122 13 -372
l0 -335 -65 -8 c-36 -4 -84 -10 -108 -13 l-43 -5 3 -157 3 -157 385 0 385 0 3
156 c3 176 6 169 -79 169 -20 0 -57 3 -82 6 l-45 6 -4 377 c-5 406 -4 404 -64
526 -18 38 -55 86 -99 130 -103 103 -217 158 -389 185 -131 22 -303 -14 -419
-87 -49 -31 -193 -168 -215 -205 -17 -29 -32 -37 -32 -17 0 23 -93 141 -143
181 -70 55 -182 106 -274 124 -88 17 -115 17 -208 -1z"/>
<path d="M6160 3021 c-77 -25 -131 -72 -175 -152 -24 -45 -29 -65 -29 -129 -1
-63 4 -84 27 -132 34 -69 91 -121 164 -148 184 -69 383 59 400 257 9 108 -53
221 -155 280 -37 22 -60 27 -126 30 -45 1 -92 -1 -106 -6z"/>
</g>
</svg>
