<svg version="1.0" xmlns="http://www.w3.org/2000/svg" width="666.667" height="666.667" viewBox="0 0 500 500"><path d="M48 192v17.9l-7.7.3-7.8.3v24l7.8.3 7.7.3v25.7c0 19.1.4 27.3 1.5 31.9 3.1 13.2 8.5 20.6 18.4 25.1 4.4 2 7.6 2.6 15.7 3 5.7.3 11.4.2 12.8-.2l2.6-.6v-24h-7.6c-10 0-13.6-1.7-16.6-7.8-2.1-4.4-2.3-6.2-2.6-29l-.4-24.2H92v-25H72v-36H48v18zm203.9 19.9c-6.2 2-16.1 8.1-18.4 11.4-1.4 2-1.5 1.6-1.5-4.6V212h-40v24h15v61h-96v24h136.1l-.3-11.3-.3-11.2-6.8-.9-6.8-.9.3-22.6.3-22.6 3-5.5c7.1-13 24.1-17.7 37.5-10.4 5.3 2.9 10.2 8.1 12 12.8.6 1.6 1 12.3 1 25.5v22.8l-3.7.7c-2.1.3-5.5.6-7.5.6H272v23h54v-23h-3.9c-2.1 0-5.3-.3-7-.6l-3.1-.7v-19.3c0-21.9.9-27.5 5.3-34.1 4.8-7.1 12.6-10.8 22.6-10.8 11.4.1 19.9 5 23.6 13.7 1.2 3 1.5 8.3 1.5 27.1v23.4l-4.6.7c-2.6.3-6 .6-7.5.6H350v23h55v-23h-3.7c-2.1 0-5.5-.3-7.5-.6l-3.6-.6-.4-27.2c-.4-25.4-.5-27.5-2.7-32.9-4.4-11-12.7-19-25-23.9-4.7-1.8-7.6-2.2-17.6-2.3-12 0-12.2 0-19.7 3.8-5.9 2.9-9.2 5.4-14.7 11.3-3.9 4.2-7.1 7.1-7.1 6.6 0-1.9-8.1-11.3-12.8-14.7-9.6-7.1-26-9.5-38.3-5.6zm191.6 71.5c-.5.3-2.3.7-3.8 1-4.6 1.1-11.4 8.1-13.3 13.8-5.2 15.9 10.5 31.7 26.3 26.4 5-1.7 10.8-6.7 13.4-11.6 1.8-3.5 1.6-13.8-.3-17.5-2.1-4.1-6.2-8-10.2-9.9-3.3-1.6-10.3-2.8-12.1-2.2z"/></svg>