<svg xmlns="http://www.w3.org/2000/svg" viewBox="0 0 22 22"><defs><style>.cls-1{fill:gray;}</style></defs><g id="Layer_2" data-name="Layer 2"><g id="Vectors"><path class="cls-1" d="M0,11.83V10A1.38,1.38,0,0,0,.08,9.7,10.75,10.75,0,0,1,7.48.61,19.82,19.82,0,0,1,10.17,0h1.66l.76.11a10.86,10.86,0,0,1,8.86,7.56A21.72,21.72,0,0,1,22,10.36v1.47c0,.24-.06.48-.11.72a10.88,10.88,0,0,1-7.69,9,20.77,20.77,0,0,1-2.37.5H10.17c-.26,0-.51-.06-.77-.11A10.83,10.83,0,0,1,.49,14.15,19.9,19.9,0,0,1,0,11.83Zm8.91-.14c.1,1,.19,1.94.31,2.88a.39.39,0,0,0,.28.25h3c.1,0,.29-.1.29-.18.13-1,.22-1.94.33-3Zm4.16-1.37c-.13-1-.24-2-.38-2.9,0-.1-.22-.23-.34-.24-.9,0-1.79,0-2.69,0-.12,0-.32.1-.33.18-.15,1-.27,1.94-.4,3Zm-8,0H7.58l.36-3.14c-.7,0-1.33,0-2,0a.48.48,0,0,0-.33.26C5.43,8.36,5.25,9.29,5.05,10.31Zm9.37,0H17c-.21-1-.39-2-.6-2.89a.41.41,0,0,0-.3-.24c-.64,0-1.29,0-2,0Zm-.25,4.52c.65,0,1.28,0,1.91,0a.39.39,0,0,0,.27-.21,9.2,9.2,0,0,0,.48-2.91h-2.4Zm-6.6-3.14H5.05c.2,1,.39,2,.6,2.89,0,.09.15.23.24.23.64,0,1.28,0,1.94,0ZM4.22,7.17c-.63,0-1.21,0-1.79,0a.46.46,0,0,0-.34.2,8.3,8.3,0,0,0-.67,2.92h2.3Zm16.5,3.17c-.27-1-.5-1.93-.76-2.82a.52.52,0,0,0-.33-.33c-.62,0-1.23,0-1.83,0,.14,1,.26,2,.41,2.94a.35.35,0,0,0,.24.22ZM4.18,14.83c-.13-1-.26-2-.39-3a.29.29,0,0,0-.18-.18H1.28c.27,1,.52,2,.78,2.88a.42.42,0,0,0,.29.26C3,14.84,3.57,14.83,4.18,14.83Zm13.64,0c.59,0,1.18,0,1.76,0a.44.44,0,0,0,.33-.2,8.54,8.54,0,0,0,.67-3c-.73,0-1.42,0-2.12,0a.34.34,0,0,0-.25.21C18.07,12.84,18,13.8,17.82,14.83ZM10.89,19.9h.22l1.41-3.74H10l-.55,0Zm.2-17.85h-.18L9.6,5.81h2.79ZM6.24,5.84H7c1.21,0,1.2,0,1.56-1.16.31-1,.66-2,1-3A11.44,11.44,0,0,0,6.24,5.84Zm6.2-4.17c.42,1.35.83,2.65,1.25,4a.38.38,0,0,0,.23.2h1.84A11.5,11.5,0,0,0,12.44,1.67Zm0,18.67a11.13,11.13,0,0,0,3.33-4.18c-.56,0-1,0-1.53,0-.29,0-.4.07-.5.37C13.34,17.8,12.88,19.06,12.44,20.34Zm-6.2-4.18a11.48,11.48,0,0,0,3.31,4.18c-.44-1.3-.88-2.63-1.35-3.95a.46.46,0,0,0-.35-.22C7.35,16.15,6.85,16.16,6.24,16.16ZM6.68,2.4A9.49,9.49,0,0,0,2.89,5.84c.61,0,1.13,0,1.64,0a.49.49,0,0,0,.32-.23C5.48,4.53,6.09,3.44,6.68,2.4ZM19.11,5.84A9.54,9.54,0,0,0,15.32,2.4c.59,1,1.19,2.12,1.82,3.19a.58.58,0,0,0,.37.24C18,5.85,18.51,5.84,19.11,5.84ZM15.35,19.58a9.43,9.43,0,0,0,3.75-3.42c-.6,0-1.11,0-1.61,0a.49.49,0,0,0-.33.22C16.54,17.46,15.94,18.54,15.35,19.58Zm-8.71,0c-.58-1-1.18-2.12-1.8-3.19a.49.49,0,0,0-.28-.22c-.53,0-1.06,0-1.67,0A9.67,9.67,0,0,0,6.64,19.58Z"/></g></g></svg>