<?xml version="1.0" standalone="no"?>
<!DOCTYPE svg PUBLIC "-//W3C//DTD SVG 20010904//EN"
 "http://www.w3.org/TR/2001/REC-SVG-20010904/DTD/svg10.dtd">
<svg version="1.0" xmlns="http://www.w3.org/2000/svg"
 width="500.000000pt" height="500.000000pt" viewBox="0 0 500.000000 500.000000"
 preserveAspectRatio="xMidYMid meet">
<metadata>
Created by potrace 1.11, written by Peter Selinger 2001-2013
</metadata>
<g transform="translate(0.000000,500.000000) scale(0.100000,-0.100000)"
fill="#000000" stroke="none">
<path d="M480 3080 l0 -179 -77 -3 -78 -3 0 -120 0 -120 78 -3 77 -3 0 -257
c0 -191 4 -273 15 -319 31 -132 85 -206 184 -251 44 -20 76 -26 157 -30 57 -3
114 -2 128 2 l26 6 0 120 0 120 -76 0 c-100 0 -136 17 -166 78 -21 44 -23 62
-26 290 l-4 242 101 0 101 0 0 125 0 125 -100 0 -100 0 0 180 0 180 -120 0
-120 0 0 -180z"/>
<path d="M2519 2881 c-62 -20 -161 -81 -184 -114 -14 -20 -15 -16 -15 46 l0
67 -200 0 -200 0 0 -120 0 -120 75 0 75 0 0 -305 0 -305 -480 0 -480 0 0 -120
0 -120 680 0 681 0 -3 113 -3 112 -68 9 -68 9 3 226 3 226 30 55 c71 130 241
177 375 104 53 -29 102 -81 120 -128 6 -16 10 -123 10 -255 l0 -228 -37 -7
c-21 -3 -55 -6 -75 -6 l-38 0 0 -115 0 -115 270 0 270 0 0 115 0 115 -39 0
c-21 0 -53 3 -70 6 l-31 7 0 193 c0 219 9 275 53 341 48 71 126 108 226 108
114 -1 199 -50 236 -137 12 -30 15 -83 15 -271 l0 -234 -46 -7 c-26 -3 -60 -6
-75 -6 l-29 0 0 -115 0 -115 275 0 275 0 0 115 0 115 -37 0 c-21 0 -55 3 -75
6 l-36 6 -4 272 c-4 254 -5 275 -27 329 -44 110 -127 190 -250 239 -47 18 -76
22 -176 23 -120 0 -122 0 -197 -38 -59 -29 -92 -54 -147 -113 -39 -42 -71 -71
-71 -66 0 19 -81 113 -128 147 -96 71 -260 95 -383 56z"/>
<path d="M4435 2166 c-5 -3 -23 -7 -38 -10 -46 -11 -114 -81 -133 -138 -52
-159 105 -317 263 -264 50 17 108 67 134 116 18 35 16 138 -3 175 -21 41 -62
80 -102 99 -33 16 -103 28 -121 22z"/>
</g>
</svg>
