<svg xmlns="http://www.w3.org/2000/svg" viewBox="0 0 22 22"><path d="M0 11.83V10a1.38 1.38 0 00.08-.3A10.75 10.75 0 017.48.61 19.82 19.82 0 0110.17 0h1.66l.76.11a10.86 10.86 0 018.86 7.56 21.72 21.72 0 01.55 2.69v1.47c0 .24-.06.48-.11.72a10.88 10.88 0 01-7.69 9 20.77 20.77 0 01-2.37.5h-1.66c-.26 0-.51-.06-.77-.11a10.83 10.83 0 01-8.91-7.79A19.9 19.9 0 010 11.83zm8.91-.14c.1 1 .19 1.94.31 2.88a.39.39 0 00.28.25h3c.1 0 .29-.1.29-.18.13-1 .22-1.94.33-3zm4.16-1.37c-.13-1-.24-2-.38-2.9 0-.1-.22-.23-.34-.24H9.66c-.12 0-.32.1-.33.18-.15 1-.27 1.94-.4 3zm-8 0h2.51l.36-3.14h-2a.48.48 0 00-.33.26l-.56 2.87zm9.37 0H17c-.21-1-.39-2-.6-2.89a.41.41 0 00-.3-.24h-2zm-.25 4.52h1.91a.39.39 0 00.27-.21 9.2 9.2 0 00.48-2.91h-2.4zm-6.6-3.14H5.05c.2 1 .39 2 .6 2.89 0 .09.15.23.24.23h1.94zM4.22 7.17H2.43a.46.46 0 00-.34.2 8.3 8.3 0 00-.67 2.92h2.3zm16.5 3.17c-.27-1-.5-1.93-.76-2.82a.52.52 0 00-.33-.33H17.8c.14 1 .26 2 .41 2.94a.35.35 0 00.24.22zM4.18 14.83l-.39-3a.29.29 0 00-.18-.18H1.28c.27 1 .52 2 .78 2.88a.42.42 0 00.29.26c.65.05 1.22.04 1.83.04zm13.64 0h1.76a.44.44 0 00.33-.2 8.54 8.54 0 00.67-3h-2.12a.34.34 0 00-.25.21c-.14 1-.21 1.96-.39 2.99zm-6.93 5.07h.22l1.41-3.74H9.45zm.2-17.85h-.18L9.6 5.81h2.79zM6.24 5.84H7c1.21 0 1.2 0 1.56-1.16.31-1 .66-2 1-3a11.44 11.44 0 00-3.32 4.16zm6.2-4.17c.42 1.35.83 2.65 1.25 4a.38.38 0 00.23.2h1.84a11.5 11.5 0 00-3.32-4.2zm0 18.67a11.13 11.13 0 003.33-4.18h-1.53c-.29 0-.4.07-.5.37-.4 1.27-.86 2.53-1.3 3.81zm-6.2-4.18a11.48 11.48 0 003.31 4.18c-.44-1.3-.88-2.63-1.35-3.95a.46.46 0 00-.35-.22c-.5-.02-1-.01-1.61-.01zM6.68 2.4a9.49 9.49 0 00-3.79 3.44h1.64a.49.49 0 00.32-.23c.63-1.08 1.24-2.17 1.83-3.21zm12.43 3.44a9.54 9.54 0 00-3.79-3.44c.59 1 1.19 2.12 1.82 3.19a.58.58 0 00.37.24c.49.02 1 .01 1.6.01zm-3.76 13.74a9.43 9.43 0 003.75-3.42h-1.61a.49.49 0 00-.33.22c-.62 1.08-1.22 2.16-1.81 3.2zm-8.71 0c-.58-1-1.18-2.12-1.8-3.19a.49.49 0 00-.28-.22H2.89a9.67 9.67 0 003.75 3.41z" fill="gray" data-name="Layer 2"/></svg>