<svg xmlns="http://www.w3.org/2000/svg" width="72.997" height="69.997"><path d="M42.8 6.79c0 3.23-1.44 10.78-2.52 18.87l-1.26 8.62 7.92-3.77c9-4.31 16.2-8.27 19.98-8.27 3.24 0 5.58 2.7 5.58 6.11 0 6.83-9.18 7.01-23.22 9.34l-8.64 1.44 6.12 6.47c8.1 8.45 14.58 13.3 14.58 18.33a5.638 5.638 0 01-5.76 5.57c-5.76 0-8.82-8.09-14.94-19.59l-4.14-7.73-4.14 7.73c-6.12 11.5-9.18 19.59-14.94 19.59a5.638 5.638 0 01-5.76-5.57c0-5.03 6.48-9.88 14.58-18.33l6.12-6.47-8.64-1.44C9.5 35.36.5 34.82.5 28.35c0-3.41 2.34-6.11 5.76-6.11 4.14 0 10.8 3.95 19.8 8.27l7.92 3.77-1.26-8.62c-1.26-8.09-2.34-15.45-2.34-18.87C30.38 2.3 32.9.5 36.5.5s6.3 1.8 6.3 6.29z" fill="none" stroke="#ffffea" stroke-miterlimit="10" stroke-width=".997"/></svg>