<svg width="28" height="29" fill="none" xmlns="http://www.w3.org/2000/svg"><path d="M28 14.777v.887c-.018.027-.036.054 0 .08v.272c-.036.027-.036.027-.036.082a13.467 13.467 0 01-.226 1.708 14.553 14.553 0 01-1.038 3.237 14.117 14.117 0 01-3.946 5.063 13.657 13.657 0 01-2.69 1.7 13.7 13.7 0 01-3.793 1.184v-9.177c0-.072.063-.135.135-.135h3.143a.118.118 0 00.117-.1c.081-.56.171-1.12.253-1.681.117-.76.226-1.528.343-2.288.009-.072-.036-.126-.108-.126h-3.775a.12.12 0 01-.117-.118V12.79c0-.2.009-.398.045-.597.072-.398.226-.769.506-1.067.424-.452.966-.624 1.553-.642.65-.027 1.309-.009 1.968-.009a.12.12 0 00.117-.117V7.002a.127.127 0 00-.108-.126c-.65-.1-1.31-.181-1.968-.217-.669-.045-1.337-.073-1.996 0a5.756 5.756 0 00-1.86.515 4.455 4.455 0 00-1.932 1.745c-.569.95-.804 1.989-.822 3.083-.018 1.121-.009 2.242 0 3.363a.12.12 0 01-.117.118c-1.147 0-2.294 0-3.44-.01a.12.12 0 00-.118.118v3.97a.12.12 0 00.118.117h3.413c.081 0 .144.063.144.144v9.168a15.334 15.334 0 01-1.083-.217c-.46-.1-.921-.217-1.364-.389-2.212-.832-4.09-2.088-5.625-3.779-.38-.416-.731-.859-1.056-1.32A13.92 13.92 0 01.64 19.208a13.748 13.748 0 01-.569-3.083c0-.027.018-.082-.036-.09v-.272h.018c-.045 0-.045-.009-.054-.018v-1.483c0-.009.009-.009.009-.018H0V14c.036-.027.036-.027.036-.072.036-.516.108-1.022.208-1.528.216-1.112.55-2.197 1.03-3.219a14.152 14.152 0 013.403-4.629c.479-.443.993-.84 1.535-1.211a13.634 13.634 0 013.314-1.637 13.31 13.31 0 013.413-.678c.027 0 .072.018.063-.036h1.987c-.018.036.018.036.036.036l.316.027a12.17 12.17 0 011.508.217c1.03.217 2.031.534 2.997.986a13.903 13.903 0 015.03 3.942 13.946 13.946 0 012.095 3.58c.37.922.64 1.871.803 2.848.09.533.163 1.067.18 1.6 0 .027-.017.072.037.081v.39c-.027.026-.018.053.009.08z" fill="#000"/></svg>