<svg width="30" height="30" fill="none" xmlns="http://www.w3.org/2000/svg"><g fill="#000"><path d="M29.742 8.913l.119 10.984c0 .07-.189 2.06-.308 2.99-.456 3.402-2.556 5.853-5.817 6.693-1.982.51-14.896.53-16.58.24-3.29-.56-5.6-2.34-6.542-5.652-.277-.99-.356-2.04-.485-3.081C.079 17.346.039 13.645 0 9.903c.119-.93.188-1.86.317-2.78C.773 3.72 2.874 1.28 6.135.43 8.127-.08 21.03-.1 22.715.19c3.29.56 5.61 2.33 6.541 5.652.278.99.357 2.04.486 3.07zm-3.023 6.042c-.06-2.27-.08-4.532-.198-6.792-.179-3.201-2.14-5.262-5.293-5.332-4.44-.1-8.9-.1-13.34 0C4.798 2.9 2.736 5 2.667 8.153c-.1 4.501-.1 9.023 0 13.524.07 3.181 2.13 5.262 5.282 5.332 4.42.1 8.85.11 13.28 0 3.152-.07 5.124-2.13 5.303-5.322.109-2.24.129-4.481.188-6.732z"/><path d="M14.658 7.202c4.182.04 7.591 3.572 7.542 7.813-.05 4.241-3.538 7.693-7.72 7.633-4.163-.06-7.543-3.562-7.513-7.783.03-4.251 3.499-7.713 7.69-7.663zm-.06 12.695c2.696 0 4.906-2.261 4.896-5.012-.01-2.73-2.24-4.952-4.955-4.942-2.676.01-4.876 2.281-4.866 5.042 0 2.68 2.25 4.922 4.925 4.912zm7.859-11.204c-1.04 0-1.794-.76-1.774-1.79.02-1.001.773-1.761 1.765-1.771 1.02-.01 1.793.75 1.793 1.79s-.733 1.77-1.784 1.77z"/></g></svg>