<svg width="30" height="30" fill="none" xmlns="http://www.w3.org/2000/svg"><path d="M0 24.619V5.232c.01-.02.02-.05.02-.069.03-.198.04-.386.08-.584C.389 3.076 1.177 1.87 2.464.97 3.422.297 4.599 0 5.776 0H24.34c.329 0 .648.02.967.08 1.506.266 2.723 1.038 3.651 2.323.688.96.998 2.147.998 3.324.01 6.172 0 12.354 0 18.526 0 .286-.01.583-.07.87-.31 1.681-1.187 2.987-2.634 3.887-.927.574-2.025.821-3.122.821H5.646c-.449 0-.898-.05-1.347-.148a5.493 5.493 0 01-2.613-1.435 5.594 5.594 0 01-1.078-1.434 5.389 5.389 0 01-.578-1.79c.01-.129-.01-.267-.03-.405zM11.97 11.69v13.996h4.589s0-5.777.04-8.368c0-.158.01-.316.03-.475.04-.376.2-.702.389-1.019.27-.435.638-.78 1.127-.959.429-.168.878-.188 1.337-.109.429.08.788.267 1.057.614.22.266.34.583.429.92.12.464.17.77.17 1.414v7.893h4.808v-8.022c0-.593-.04-1.177-.14-1.76-.22-1.217-.688-2.345-1.686-3.284a3.299 3.299 0 00-.728-.505c-1.197-.613-2.444-.761-3.72-.534-1.088.198-1.946.762-2.604 1.642-.12.158-.23.317-.34.475h-.02l-.03-1.919H11.97zm-6.982 0v13.907h4.987V11.69H4.988zm2.244-2.037c.25-.04.509-.05.758-.12.728-.177 1.287-.593 1.596-1.285.26-.564.27-1.147.07-1.74a2.163 2.163 0 00-1.207-1.316c-.608-.277-1.257-.297-1.905-.159-.609.13-1.117.446-1.467.97a2.27 2.27 0 00-.349 1.602c.08.643.38 1.157.898 1.543.479.356 1.018.485 1.606.505z" fill="#000"/></svg>