<svg xmlns="http://www.w3.org/2000/svg" width="767.396" height="767.393"><path d="M479.818 669.999c50.97-17.06 76.92 60.45 25.94 77.51a384.366 384.366 0 01-144.68 19.22c-211.45-12.49-372.89-194.19-360.4-405.64s194.19-372.9 405.64-360.41 372.89 194.19 360.4 405.64a391.009 391.009 0 01-6.56 51.83c-10.32 52.87-90.72 37.19-80.4-15.69a295.431 295.431 0 005.29-40.94c9.82-166.22-117.3-309.35-283.53-319.16s-309.35 117.3-319.16 283.53 117.29 309.35 283.52 319.16a300.515 300.515 0 00113.94-15.05z"/></svg>