<svg xmlns="http://www.w3.org/2000/svg" width="767.396" height="767.393" viewBox="0 0 767.396 767.393"><g transform="translate(-0.002 -0.001)"><path d="M479.82,670c50.97-17.06,76.92,60.45,25.94,77.51a384.366,384.366,0,0,1-144.68,19.22C149.63,754.24-11.81,572.54.68,361.09S194.87-11.81,406.32.68s372.89,194.19,360.4,405.64a391.009,391.009,0,0,1-6.56,51.83c-10.32,52.87-90.72,37.19-80.4-15.69a295.431,295.431,0,0,0,5.29-40.94C694.87,235.3,567.75,92.17,401.52,82.36S92.17,199.66,82.36,365.89,199.65,675.24,365.88,685.05A300.515,300.515,0,0,0,479.82,670Z"/></g></svg>