<svg width="30" height="30" fill="none" xmlns="http://www.w3.org/2000/svg"><path d="M29.697 11.48c-.028.064 0 .12.019.175.074.37.13.74.176 1.11.037.341.065.683.084 1.034.028.398.028.786.01 1.183a15.224 15.224 0 01-.334 2.662c-.01.028-.01.065-.01.093-.047.268-.13.536-.205.795-.25.86-.566 1.682-.965 2.477a14.628 14.628 0 01-3.13 4.159 14.283 14.283 0 01-2.785 2.024 15.26 15.26 0 01-2.452 1.09c-.733.25-1.476.435-2.238.555a17.3 17.3 0 01-1.411.166c-.538.037-1.086.037-1.625.019a13.917 13.917 0 01-3.64-.629 14.315 14.315 0 01-3.881-1.867c-.019-.009-.028-.018-.047-.027a.105.105 0 00-.028-.037c-.009-.019-.027-.028-.055-.028 0-.019-.019-.028-.028-.028-.019-.037-.047-.055-.084-.055-.018-.037-.046-.056-.083-.056 0-.018-.019-.028-.028-.028-.019-.036-.047-.055-.084-.055-.028-.046-.055-.074-.111-.083-.019-.037-.047-.056-.084-.056-.009-.027-.018-.055-.055-.055-.028-.046-.056-.074-.112-.083-.037-.046-.074-.093-.14-.111-.036-.046-.073-.093-.138-.111-.028-.046-.056-.074-.112-.083 0-.037-.018-.056-.056-.056-.027-.055-.065-.101-.13-.11 0-.037-.018-.056-.055-.056 0-.018-.01-.028-.028-.028-.037-.055-.065-.101-.13-.11-.01-.056-.037-.084-.093-.084-.01 0-.01-.01-.019-.01a.05.05 0 00-.027-.045c-.093-.102-.168-.213-.298-.268-.009-.065-.055-.093-.102-.139-.158-.148-.288-.314-.464-.453 0-.037-.019-.055-.046-.074a9.47 9.47 0 01-.493-.573c-.027-.037-.055-.083-.102-.101 0-.038-.018-.056-.037-.084-.102-.138-.213-.277-.316-.416.028.037.02.01-.018 0a.376.376 0 00-.13-.184c0-.056-.047-.093-.074-.14a13.359 13.359 0 01-.957-1.607c-.436-.85-.78-1.729-1.03-2.653a13.239 13.239 0 01-.474-2.588c-.037-.37-.056-.749-.074-1.127-.01-.416.018-.832.037-1.248.028-.435.074-.869.148-1.294.103-.638.251-1.266.437-1.886A14.336 14.336 0 012.87 7.32a15.165 15.165 0 012.164-2.874 15.47 15.47 0 011.346-1.23 14.265 14.265 0 012.312-1.524C10.04.97 11.488.49 13.02.203a13.498 13.498 0 011.728-.175 9.385 9.385 0 011.02-.019c.447.028.892.037 1.338.093.344.037.678.083 1.012.148.437.083.873.185 1.31.305.733.203 1.448.471 2.144.795a14.498 14.498 0 013.854 2.606c.279.268.548.545.808.832.436.48.835.989 1.207 1.525a13.982 13.982 0 011.736 3.401c.186.527.335 1.063.465 1.608.009.046.009.093.055.111v.046zm-24.124.129c0 .185.019.351.047.517.13.805.427 1.535.891 2.2.195.277.39.545.64.758.39.324.818.62 1.264.86.39.203.808.341 1.272.406-.158.065-.307.093-.455.139a2.997 2.997 0 01-1.458.065c-.204-.037-.39-.111-.585-.167-.028-.009-.056-.027-.084 0-.009.037.01.065.019.093a4.822 4.822 0 001.68 2.375c.214.166.437.314.679.425a4.82 4.82 0 001.439.38c.102.008.195.018.316.036-.056.037-.084.065-.121.083-.362.25-.734.49-1.115.712a10.31 10.31 0 01-1.82.887c-.882.314-1.792.509-2.72.573-.037 0-.084-.009-.112.028 0 .01.01.018.01.028l.223.166a10.059 10.059 0 002.785 1.34c.957.296 1.941.462 2.944.509.371.018.733.009 1.105-.01a11.004 11.004 0 004.736-1.433 12.477 12.477 0 003.658-3.197 13.889 13.889 0 002.126-3.947c.26-.74.455-1.506.585-2.273.112-.62.177-1.248.205-1.877.009-.295.037-.591.018-.887-.018-.25-.01-.508-.018-.758 0-.074.018-.12.083-.166.52-.333.975-.74 1.402-1.183.316-.324.558-.675.688-1.11.009-.027.037-.064.009-.101-.102.046-.204.102-.307.148-.362.175-.724.342-1.114.434-.306.074-.604.13-.92.083-.036-.009-.092.019-.101-.037-.01-.046.055-.046.093-.064a2.5 2.5 0 001.012-.74c.278-.332.464-.72.631-1.118a1.01 1.01 0 00.056-.527c-.047 0-.084.028-.12.046a43.54 43.54 0 01-.93.462c-.464.222-.928.416-1.43.537-.102.027-.157.009-.232-.065-.25-.25-.52-.49-.808-.693-.64-.462-1.374-.638-2.154-.684a3.79 3.79 0 00-.975.074c-1.29.277-2.256.998-2.915 2.135a4.107 4.107 0 00-.539 1.71c-.037.415-.046.822.056 1.229.028.13.056.268.083.406.019.102.01.111-.092.111-.465 0-.92.01-1.384-.036a9.27 9.27 0 01-1.727-.37 12.195 12.195 0 01-2.507-1.119c-.892-.554-1.737-1.183-2.452-1.959-.334-.36-.64-.73-.854-1.174-.01-.028-.019-.055-.056-.065-.028.01-.046.047-.055.074a5.017 5.017 0 00-.604 2.256c-.01.258.019.517.056.776.037.24.083.48.176.712.149.342.316.674.52.989.427.656.966 1.192 1.672 1.543.027.019.074.019.083.065-.046-.01-.102-.01-.148-.01a7.61 7.61 0 01-1.022-.083 2.866 2.866 0 01-1.096-.379c-.074-.046-.139-.092-.232-.138z" fill="#231F20"/></svg>